<mxfile host="Electron" modified="2023-11-21T11:58:21.831Z" agent="Mozilla/5.0 (X11; Linux x86_64) AppleWebKit/537.36 (KHTML, like Gecko) draw.io/22.1.2 Chrome/114.0.5735.289 Electron/25.9.4 Safari/537.36" etag="3NIqBWJQ1xCpHs_nw3ZK" version="22.1.2" type="device">
  <diagram name="Page-1" id="Xms4vQwvj5x-DTssd_DD">
    <mxGraphModel dx="1362" dy="813" grid="1" gridSize="10" guides="1" tooltips="1" connect="1" arrows="1" fold="1" page="1" pageScale="1" pageWidth="827" pageHeight="1169" background="#ffffff" math="0" shadow="0">
      <root>
        <mxCell id="0" />
        <mxCell id="1" parent="0" />
        <mxCell id="XgoD8Mu38-TQksBzbD_L-8" value="" style="rounded=0;whiteSpace=wrap;html=1;fillColor=#99CCFF;direction=south;" parent="1" vertex="1">
          <mxGeometry x="320" y="210" width="930" height="841.62" as="geometry" />
        </mxCell>
        <mxCell id="Rk5Obd-SXg-HLK2UVsQ8-55" value="" style="group" parent="1" vertex="1" connectable="0">
          <mxGeometry x="820" y="270" width="400" height="510" as="geometry" />
        </mxCell>
        <mxCell id="XgoD8Mu38-TQksBzbD_L-55" value="" style="rounded=0;whiteSpace=wrap;html=1;fillColor=#FFCC99;" parent="Rk5Obd-SXg-HLK2UVsQ8-55" vertex="1">
          <mxGeometry width="400" height="510" as="geometry" />
        </mxCell>
        <mxCell id="XgoD8Mu38-TQksBzbD_L-2" value="&lt;b&gt;&lt;font style=&quot;font-size: 14px;&quot;&gt;Block (0.1)&lt;/font&gt;&lt;/b&gt;" style="text;html=1;strokeColor=none;fillColor=none;align=center;verticalAlign=middle;whiteSpace=wrap;rounded=0;" parent="Rk5Obd-SXg-HLK2UVsQ8-55" vertex="1">
          <mxGeometry x="20" y="20" width="84" height="30" as="geometry" />
        </mxCell>
        <mxCell id="XgoD8Mu38-TQksBzbD_L-4" value="&lt;b&gt;Thread&lt;br&gt;(0,0)&lt;/b&gt;" style="rounded=0;whiteSpace=wrap;html=1;labelBackgroundColor=#66FF66;fillColor=#66FF66;" parent="Rk5Obd-SXg-HLK2UVsQ8-55" vertex="1">
          <mxGeometry x="50" y="260" width="130" height="70" as="geometry" />
        </mxCell>
        <mxCell id="Rk5Obd-SXg-HLK2UVsQ8-35" value="&lt;b&gt;Shared memory&lt;/b&gt;" style="rounded=0;whiteSpace=wrap;html=1;labelBackgroundColor=#FF8000;fillColor=#FF8000;" parent="Rk5Obd-SXg-HLK2UVsQ8-55" vertex="1">
          <mxGeometry x="50" y="79" width="300" height="51" as="geometry" />
        </mxCell>
        <mxCell id="Rk5Obd-SXg-HLK2UVsQ8-37" value="&lt;b&gt;Registers&lt;/b&gt;" style="rounded=0;whiteSpace=wrap;html=1;labelBackgroundColor=#FF8000;fillColor=#FF8000;" parent="Rk5Obd-SXg-HLK2UVsQ8-55" vertex="1">
          <mxGeometry x="50" y="160" width="110" height="50" as="geometry" />
        </mxCell>
        <mxCell id="Rk5Obd-SXg-HLK2UVsQ8-38" value="&lt;b&gt;Local&lt;br&gt;memory&lt;br&gt;&lt;/b&gt;" style="rounded=0;whiteSpace=wrap;html=1;labelBackgroundColor=#FF8000;fillColor=#FF8000;" parent="Rk5Obd-SXg-HLK2UVsQ8-55" vertex="1">
          <mxGeometry x="55" y="360" width="100" height="130" as="geometry" />
        </mxCell>
        <mxCell id="Rk5Obd-SXg-HLK2UVsQ8-40" value="&lt;b&gt;Registers&lt;/b&gt;" style="rounded=0;whiteSpace=wrap;html=1;labelBackgroundColor=#FF8000;fillColor=#FF8000;" parent="Rk5Obd-SXg-HLK2UVsQ8-55" vertex="1">
          <mxGeometry x="210" y="160" width="110" height="50" as="geometry" />
        </mxCell>
        <mxCell id="Rk5Obd-SXg-HLK2UVsQ8-41" value="&lt;b&gt;Thread&lt;br&gt;(1,0)&lt;/b&gt;" style="rounded=0;whiteSpace=wrap;html=1;labelBackgroundColor=#66FF66;fillColor=#66FF66;" parent="Rk5Obd-SXg-HLK2UVsQ8-55" vertex="1">
          <mxGeometry x="210" y="260" width="130" height="70" as="geometry" />
        </mxCell>
        <mxCell id="Rk5Obd-SXg-HLK2UVsQ8-42" value="&lt;b&gt;Local&lt;br&gt;memory&lt;br&gt;&lt;/b&gt;" style="rounded=0;whiteSpace=wrap;html=1;labelBackgroundColor=#FF8000;fillColor=#FF8000;" parent="Rk5Obd-SXg-HLK2UVsQ8-55" vertex="1">
          <mxGeometry x="210" y="360" width="100" height="130" as="geometry" />
        </mxCell>
        <mxCell id="Rk5Obd-SXg-HLK2UVsQ8-47" value="" style="endArrow=classic;startArrow=classic;html=1;rounded=0;entryX=0.386;entryY=0.996;entryDx=0;entryDy=0;entryPerimeter=0;" parent="Rk5Obd-SXg-HLK2UVsQ8-55" target="Rk5Obd-SXg-HLK2UVsQ8-35" edge="1">
          <mxGeometry width="50" height="50" relative="1" as="geometry">
            <mxPoint x="165" y="260" as="sourcePoint" />
            <mxPoint x="215" y="210" as="targetPoint" />
          </mxGeometry>
        </mxCell>
        <mxCell id="Rk5Obd-SXg-HLK2UVsQ8-48" value="" style="endArrow=classic;startArrow=classic;html=1;rounded=0;entryX=0.5;entryY=1;entryDx=0;entryDy=0;exitX=0.421;exitY=0.002;exitDx=0;exitDy=0;exitPerimeter=0;" parent="Rk5Obd-SXg-HLK2UVsQ8-55" source="XgoD8Mu38-TQksBzbD_L-4" target="Rk5Obd-SXg-HLK2UVsQ8-37" edge="1">
          <mxGeometry width="50" height="50" relative="1" as="geometry">
            <mxPoint x="175" y="270" as="sourcePoint" />
            <mxPoint x="176" y="140" as="targetPoint" />
          </mxGeometry>
        </mxCell>
        <mxCell id="Rk5Obd-SXg-HLK2UVsQ8-49" value="" style="endArrow=classic;startArrow=classic;html=1;rounded=0;entryX=0.5;entryY=1;entryDx=0;entryDy=0;exitX=0.421;exitY=0.002;exitDx=0;exitDy=0;exitPerimeter=0;" parent="Rk5Obd-SXg-HLK2UVsQ8-55" edge="1">
          <mxGeometry width="50" height="50" relative="1" as="geometry">
            <mxPoint x="259.77" y="260" as="sourcePoint" />
            <mxPoint x="259.77" y="210" as="targetPoint" />
          </mxGeometry>
        </mxCell>
        <mxCell id="Rk5Obd-SXg-HLK2UVsQ8-52" value="" style="endArrow=classic;startArrow=classic;html=1;rounded=0;entryX=0.386;entryY=0.996;entryDx=0;entryDy=0;entryPerimeter=0;" parent="Rk5Obd-SXg-HLK2UVsQ8-55" edge="1">
          <mxGeometry width="50" height="50" relative="1" as="geometry">
            <mxPoint x="326" y="260" as="sourcePoint" />
            <mxPoint x="327" y="130" as="targetPoint" />
          </mxGeometry>
        </mxCell>
        <mxCell id="Rk5Obd-SXg-HLK2UVsQ8-53" value="" style="endArrow=classic;startArrow=classic;html=1;rounded=0;exitX=0.421;exitY=0.002;exitDx=0;exitDy=0;exitPerimeter=0;entryX=0.415;entryY=1;entryDx=0;entryDy=0;entryPerimeter=0;" parent="Rk5Obd-SXg-HLK2UVsQ8-55" target="XgoD8Mu38-TQksBzbD_L-4" edge="1">
          <mxGeometry width="50" height="50" relative="1" as="geometry">
            <mxPoint x="104" y="360" as="sourcePoint" />
            <mxPoint x="100" y="330" as="targetPoint" />
          </mxGeometry>
        </mxCell>
        <mxCell id="Rk5Obd-SXg-HLK2UVsQ8-54" value="" style="endArrow=classic;startArrow=classic;html=1;rounded=0;exitX=0.421;exitY=0.002;exitDx=0;exitDy=0;exitPerimeter=0;entryX=0.415;entryY=1;entryDx=0;entryDy=0;entryPerimeter=0;" parent="Rk5Obd-SXg-HLK2UVsQ8-55" edge="1">
          <mxGeometry width="50" height="50" relative="1" as="geometry">
            <mxPoint x="259.77" y="360" as="sourcePoint" />
            <mxPoint x="259.77" y="330" as="targetPoint" />
          </mxGeometry>
        </mxCell>
        <mxCell id="Rk5Obd-SXg-HLK2UVsQ8-78" value="" style="endArrow=classic;startArrow=classic;html=1;rounded=0;entryX=0.933;entryY=0.99;entryDx=0;entryDy=0;entryPerimeter=0;exitX=0.741;exitY=-0.045;exitDx=0;exitDy=0;exitPerimeter=0;" parent="Rk5Obd-SXg-HLK2UVsQ8-55" edge="1">
          <mxGeometry width="50" height="50" relative="1" as="geometry">
            <mxPoint x="317.826" y="538" as="sourcePoint" />
            <mxPoint x="316.0000000000002" y="329.99999999999994" as="targetPoint" />
          </mxGeometry>
        </mxCell>
        <mxCell id="Rk5Obd-SXg-HLK2UVsQ8-56" value="" style="group" parent="1" vertex="1" connectable="0">
          <mxGeometry x="344" y="270" width="400" height="510" as="geometry" />
        </mxCell>
        <mxCell id="Rk5Obd-SXg-HLK2UVsQ8-57" value="" style="rounded=0;whiteSpace=wrap;html=1;fillColor=#FFCC99;" parent="Rk5Obd-SXg-HLK2UVsQ8-56" vertex="1">
          <mxGeometry width="400" height="510" as="geometry" />
        </mxCell>
        <mxCell id="Rk5Obd-SXg-HLK2UVsQ8-58" value="&lt;b&gt;&lt;font style=&quot;font-size: 14px;&quot;&gt;Block (0.0)&lt;/font&gt;&lt;/b&gt;" style="text;html=1;strokeColor=none;fillColor=none;align=center;verticalAlign=middle;whiteSpace=wrap;rounded=0;" parent="Rk5Obd-SXg-HLK2UVsQ8-56" vertex="1">
          <mxGeometry x="20" y="20" width="84" height="30" as="geometry" />
        </mxCell>
        <mxCell id="Rk5Obd-SXg-HLK2UVsQ8-59" value="&lt;b&gt;Thread&lt;br&gt;(0,0)&lt;/b&gt;" style="rounded=0;whiteSpace=wrap;html=1;labelBackgroundColor=#66FF66;fillColor=#66FF66;" parent="Rk5Obd-SXg-HLK2UVsQ8-56" vertex="1">
          <mxGeometry x="50" y="260" width="130" height="70" as="geometry" />
        </mxCell>
        <mxCell id="Rk5Obd-SXg-HLK2UVsQ8-60" value="&lt;b&gt;Shared memory&lt;/b&gt;" style="rounded=0;whiteSpace=wrap;html=1;labelBackgroundColor=#FF8000;fillColor=#FF8000;" parent="Rk5Obd-SXg-HLK2UVsQ8-56" vertex="1">
          <mxGeometry x="50" y="79" width="300" height="51" as="geometry" />
        </mxCell>
        <mxCell id="Rk5Obd-SXg-HLK2UVsQ8-61" value="&lt;b&gt;Registers&lt;/b&gt;" style="rounded=0;whiteSpace=wrap;html=1;labelBackgroundColor=#FF8000;fillColor=#FF8000;" parent="Rk5Obd-SXg-HLK2UVsQ8-56" vertex="1">
          <mxGeometry x="50" y="160" width="110" height="50" as="geometry" />
        </mxCell>
        <mxCell id="Rk5Obd-SXg-HLK2UVsQ8-62" value="&lt;b&gt;Local&lt;br&gt;memory&lt;br&gt;&lt;/b&gt;" style="rounded=0;whiteSpace=wrap;html=1;labelBackgroundColor=#FF8000;fillColor=#FF8000;" parent="Rk5Obd-SXg-HLK2UVsQ8-56" vertex="1">
          <mxGeometry x="55" y="360" width="100" height="130" as="geometry" />
        </mxCell>
        <mxCell id="Rk5Obd-SXg-HLK2UVsQ8-63" value="&lt;b&gt;Registers&lt;/b&gt;" style="rounded=0;whiteSpace=wrap;html=1;labelBackgroundColor=#FF8000;fillColor=#FF8000;" parent="Rk5Obd-SXg-HLK2UVsQ8-56" vertex="1">
          <mxGeometry x="210" y="160" width="110" height="50" as="geometry" />
        </mxCell>
        <mxCell id="Rk5Obd-SXg-HLK2UVsQ8-64" value="&lt;b&gt;Thread&lt;br&gt;(1,0)&lt;/b&gt;" style="rounded=0;whiteSpace=wrap;html=1;labelBackgroundColor=#66FF66;fillColor=#66FF66;" parent="Rk5Obd-SXg-HLK2UVsQ8-56" vertex="1">
          <mxGeometry x="210" y="260" width="130" height="70" as="geometry" />
        </mxCell>
        <mxCell id="Rk5Obd-SXg-HLK2UVsQ8-65" value="&lt;b&gt;Local&lt;br&gt;memory&lt;br&gt;&lt;/b&gt;" style="rounded=0;whiteSpace=wrap;html=1;labelBackgroundColor=#FF8000;fillColor=#FF8000;" parent="Rk5Obd-SXg-HLK2UVsQ8-56" vertex="1">
          <mxGeometry x="210" y="360" width="100" height="130" as="geometry" />
        </mxCell>
        <mxCell id="Rk5Obd-SXg-HLK2UVsQ8-66" value="" style="endArrow=classic;startArrow=classic;html=1;rounded=0;entryX=0.386;entryY=0.996;entryDx=0;entryDy=0;entryPerimeter=0;" parent="Rk5Obd-SXg-HLK2UVsQ8-56" target="Rk5Obd-SXg-HLK2UVsQ8-60" edge="1">
          <mxGeometry width="50" height="50" relative="1" as="geometry">
            <mxPoint x="165" y="260" as="sourcePoint" />
            <mxPoint x="215" y="210" as="targetPoint" />
          </mxGeometry>
        </mxCell>
        <mxCell id="Rk5Obd-SXg-HLK2UVsQ8-67" value="" style="endArrow=classic;startArrow=classic;html=1;rounded=0;entryX=0.5;entryY=1;entryDx=0;entryDy=0;exitX=0.421;exitY=0.002;exitDx=0;exitDy=0;exitPerimeter=0;" parent="Rk5Obd-SXg-HLK2UVsQ8-56" source="Rk5Obd-SXg-HLK2UVsQ8-59" target="Rk5Obd-SXg-HLK2UVsQ8-61" edge="1">
          <mxGeometry width="50" height="50" relative="1" as="geometry">
            <mxPoint x="175" y="270" as="sourcePoint" />
            <mxPoint x="176" y="140" as="targetPoint" />
          </mxGeometry>
        </mxCell>
        <mxCell id="Rk5Obd-SXg-HLK2UVsQ8-68" value="" style="endArrow=classic;startArrow=classic;html=1;rounded=0;entryX=0.5;entryY=1;entryDx=0;entryDy=0;exitX=0.421;exitY=0.002;exitDx=0;exitDy=0;exitPerimeter=0;" parent="Rk5Obd-SXg-HLK2UVsQ8-56" edge="1">
          <mxGeometry width="50" height="50" relative="1" as="geometry">
            <mxPoint x="259.77" y="260" as="sourcePoint" />
            <mxPoint x="259.77" y="210" as="targetPoint" />
          </mxGeometry>
        </mxCell>
        <mxCell id="Rk5Obd-SXg-HLK2UVsQ8-69" value="" style="endArrow=classic;startArrow=classic;html=1;rounded=0;entryX=0.386;entryY=0.996;entryDx=0;entryDy=0;entryPerimeter=0;" parent="Rk5Obd-SXg-HLK2UVsQ8-56" edge="1">
          <mxGeometry width="50" height="50" relative="1" as="geometry">
            <mxPoint x="326" y="260" as="sourcePoint" />
            <mxPoint x="327" y="130" as="targetPoint" />
          </mxGeometry>
        </mxCell>
        <mxCell id="Rk5Obd-SXg-HLK2UVsQ8-70" value="" style="endArrow=classic;startArrow=classic;html=1;rounded=0;exitX=0.421;exitY=0.002;exitDx=0;exitDy=0;exitPerimeter=0;entryX=0.415;entryY=1;entryDx=0;entryDy=0;entryPerimeter=0;" parent="Rk5Obd-SXg-HLK2UVsQ8-56" target="Rk5Obd-SXg-HLK2UVsQ8-59" edge="1">
          <mxGeometry width="50" height="50" relative="1" as="geometry">
            <mxPoint x="104" y="360" as="sourcePoint" />
            <mxPoint x="100" y="330" as="targetPoint" />
          </mxGeometry>
        </mxCell>
        <mxCell id="Rk5Obd-SXg-HLK2UVsQ8-71" value="" style="endArrow=classic;startArrow=classic;html=1;rounded=0;exitX=0.421;exitY=0.002;exitDx=0;exitDy=0;exitPerimeter=0;entryX=0.415;entryY=1;entryDx=0;entryDy=0;entryPerimeter=0;" parent="Rk5Obd-SXg-HLK2UVsQ8-56" edge="1">
          <mxGeometry width="50" height="50" relative="1" as="geometry">
            <mxPoint x="259.77" y="360" as="sourcePoint" />
            <mxPoint x="259.77" y="330" as="targetPoint" />
          </mxGeometry>
        </mxCell>
        <mxCell id="Rk5Obd-SXg-HLK2UVsQ8-79" value="" style="endArrow=classic;startArrow=classic;html=1;rounded=0;entryX=0.933;entryY=0.99;entryDx=0;entryDy=0;entryPerimeter=0;exitX=0.741;exitY=-0.045;exitDx=0;exitDy=0;exitPerimeter=0;" parent="Rk5Obd-SXg-HLK2UVsQ8-56" edge="1">
          <mxGeometry width="50" height="50" relative="1" as="geometry">
            <mxPoint x="316.826" y="538" as="sourcePoint" />
            <mxPoint x="315.0000000000002" y="329.99999999999994" as="targetPoint" />
          </mxGeometry>
        </mxCell>
        <mxCell id="Rk5Obd-SXg-HLK2UVsQ8-73" value="&lt;b&gt;&amp;nbsp; Global &lt;br&gt;&amp;nbsp; memory&lt;/b&gt;" style="rounded=0;whiteSpace=wrap;html=1;labelBackgroundColor=#FF8000;fillColor=#FF8000;align=left;" parent="1" vertex="1">
          <mxGeometry x="344" y="810" width="876" height="60" as="geometry" />
        </mxCell>
        <mxCell id="Rk5Obd-SXg-HLK2UVsQ8-74" value="&lt;b&gt;&amp;nbsp; Constant&lt;br&gt;&amp;nbsp; memory&lt;/b&gt;" style="rounded=0;whiteSpace=wrap;html=1;labelBackgroundColor=#FF8000;fillColor=#FF8000;align=left;" parent="1" vertex="1">
          <mxGeometry x="344" y="894" width="876" height="60" as="geometry" />
        </mxCell>
        <mxCell id="Rk5Obd-SXg-HLK2UVsQ8-75" value="&lt;b&gt;&amp;nbsp; Texture&lt;br&gt;&amp;nbsp; memory&lt;/b&gt;" style="rounded=0;whiteSpace=wrap;html=1;labelBackgroundColor=#FF8000;fillColor=#FF8000;align=left;" parent="1" vertex="1">
          <mxGeometry x="344" y="980" width="876" height="60" as="geometry" />
        </mxCell>
        <mxCell id="Rk5Obd-SXg-HLK2UVsQ8-76" value="&lt;b&gt;&lt;font style=&quot;font-size: 14px;&quot;&gt;Grid&lt;/font&gt;&lt;/b&gt;" style="text;html=1;strokeColor=none;fillColor=none;align=center;verticalAlign=middle;whiteSpace=wrap;rounded=0;" parent="1" vertex="1">
          <mxGeometry x="320" y="220" width="84" height="30" as="geometry" />
        </mxCell>
        <mxCell id="Rk5Obd-SXg-HLK2UVsQ8-77" value="" style="endArrow=classic;startArrow=classic;html=1;rounded=0;entryX=0.933;entryY=0.99;entryDx=0;entryDy=0;entryPerimeter=0;exitX=0.741;exitY=-0.045;exitDx=0;exitDy=0;exitPerimeter=0;" parent="1" edge="1">
          <mxGeometry width="50" height="50" relative="1" as="geometry">
            <mxPoint x="982.116" y="807.3" as="sourcePoint" />
            <mxPoint x="980.2900000000002" y="599.3" as="targetPoint" />
          </mxGeometry>
        </mxCell>
        <mxCell id="Rk5Obd-SXg-HLK2UVsQ8-82" value="" style="endArrow=classic;startArrow=classic;html=1;rounded=0;entryX=0.933;entryY=0.99;entryDx=0;entryDy=0;entryPerimeter=0;exitX=0.741;exitY=-0.045;exitDx=0;exitDy=0;exitPerimeter=0;" parent="1" edge="1">
          <mxGeometry width="50" height="50" relative="1" as="geometry">
            <mxPoint x="505.826" y="810" as="sourcePoint" />
            <mxPoint x="504.0000000000002" y="602" as="targetPoint" />
          </mxGeometry>
        </mxCell>
        <mxCell id="Rk5Obd-SXg-HLK2UVsQ8-86" value="" style="endArrow=classic;startArrow=classic;html=1;rounded=0;entryX=0.933;entryY=0.99;entryDx=0;entryDy=0;entryPerimeter=0;exitX=0.202;exitY=0.007;exitDx=0;exitDy=0;exitPerimeter=0;" parent="1" source="Rk5Obd-SXg-HLK2UVsQ8-75" edge="1">
          <mxGeometry width="50" height="50" relative="1" as="geometry">
            <mxPoint x="520" y="894" as="sourcePoint" />
            <mxPoint x="521.0000000000002" y="602" as="targetPoint" />
          </mxGeometry>
        </mxCell>
        <mxCell id="Rk5Obd-SXg-HLK2UVsQ8-87" value="" style="endArrow=classic;startArrow=classic;html=1;rounded=0;entryX=0.933;entryY=0.99;entryDx=0;entryDy=0;entryPerimeter=0;exitX=0.194;exitY=0.004;exitDx=0;exitDy=0;exitPerimeter=0;" parent="1" edge="1">
          <mxGeometry width="50" height="50" relative="1" as="geometry">
            <mxPoint x="512" y="894" as="sourcePoint" />
            <mxPoint x="513.0000000000002" y="602" as="targetPoint" />
          </mxGeometry>
        </mxCell>
        <mxCell id="Rk5Obd-SXg-HLK2UVsQ8-88" value="" style="endArrow=classic;startArrow=classic;html=1;rounded=0;entryX=0.933;entryY=0.99;entryDx=0;entryDy=0;entryPerimeter=0;exitX=0.202;exitY=0.007;exitDx=0;exitDy=0;exitPerimeter=0;" parent="1" edge="1">
          <mxGeometry width="50" height="50" relative="1" as="geometry">
            <mxPoint x="999" y="978" as="sourcePoint" />
            <mxPoint x="999.0000000000002" y="600" as="targetPoint" />
          </mxGeometry>
        </mxCell>
        <mxCell id="Rk5Obd-SXg-HLK2UVsQ8-89" value="" style="endArrow=classic;startArrow=classic;html=1;rounded=0;entryX=0.933;entryY=0.99;entryDx=0;entryDy=0;entryPerimeter=0;exitX=0.202;exitY=0.007;exitDx=0;exitDy=0;exitPerimeter=0;" parent="1" edge="1">
          <mxGeometry width="50" height="50" relative="1" as="geometry">
            <mxPoint x="679" y="978" as="sourcePoint" />
            <mxPoint x="679.0000000000002" y="600" as="targetPoint" />
          </mxGeometry>
        </mxCell>
        <mxCell id="Rk5Obd-SXg-HLK2UVsQ8-90" value="" style="endArrow=classic;startArrow=classic;html=1;rounded=0;entryX=0.933;entryY=0.99;entryDx=0;entryDy=0;entryPerimeter=0;exitX=0.194;exitY=0.004;exitDx=0;exitDy=0;exitPerimeter=0;" parent="1" edge="1">
          <mxGeometry width="50" height="50" relative="1" as="geometry">
            <mxPoint x="668" y="892" as="sourcePoint" />
            <mxPoint x="669.0000000000002" y="600" as="targetPoint" />
          </mxGeometry>
        </mxCell>
        <mxCell id="Rk5Obd-SXg-HLK2UVsQ8-91" value="" style="endArrow=classic;startArrow=classic;html=1;rounded=0;entryX=0.933;entryY=0.99;entryDx=0;entryDy=0;entryPerimeter=0;exitX=0.194;exitY=0.004;exitDx=0;exitDy=0;exitPerimeter=0;" parent="1" edge="1">
          <mxGeometry width="50" height="50" relative="1" as="geometry">
            <mxPoint x="989" y="892" as="sourcePoint" />
            <mxPoint x="990.0000000000002" y="600" as="targetPoint" />
          </mxGeometry>
        </mxCell>
        <mxCell id="Rk5Obd-SXg-HLK2UVsQ8-92" value="" style="endArrow=classic;startArrow=classic;html=1;rounded=0;entryX=0.933;entryY=0.99;entryDx=0;entryDy=0;entryPerimeter=0;exitX=0.202;exitY=0.007;exitDx=0;exitDy=0;exitPerimeter=0;" parent="1" edge="1">
          <mxGeometry width="50" height="50" relative="1" as="geometry">
            <mxPoint x="1156" y="978" as="sourcePoint" />
            <mxPoint x="1156.0000000000002" y="600" as="targetPoint" />
          </mxGeometry>
        </mxCell>
        <mxCell id="Rk5Obd-SXg-HLK2UVsQ8-93" value="" style="endArrow=classic;startArrow=classic;html=1;rounded=0;entryX=0.933;entryY=0.99;entryDx=0;entryDy=0;entryPerimeter=0;exitX=0.194;exitY=0.004;exitDx=0;exitDy=0;exitPerimeter=0;" parent="1" edge="1">
          <mxGeometry width="50" height="50" relative="1" as="geometry">
            <mxPoint x="1145" y="892" as="sourcePoint" />
            <mxPoint x="1146.0000000000002" y="600" as="targetPoint" />
          </mxGeometry>
        </mxCell>
      </root>
    </mxGraphModel>
  </diagram>
</mxfile>
